<?xml version="1.0" encoding="UTF-8"?>
<svg version="1.1" xmlns="http://www.w3.org/2000/svg" width="600" height="616">
<path d="M0 0 C0.95330752 -0.00235223 1.90661504 -0.00470446 2.88881066 -0.00712797 C6.11373756 -0.01383547 9.33862433 -0.01335922 12.56355762 -0.01294994 C14.88683328 -0.01624747 17.21010837 -0.01997281 19.53338271 -0.02409142 C25.26850454 -0.03307736 31.00361657 -0.03734106 36.73874468 -0.03961039 C43.60580422 -0.04256999 50.4728535 -0.05126595 57.33990766 -0.06002467 C73.9391285 -0.08087974 90.53835114 -0.09134042 107.13758204 -0.10015428 C114.98806048 -0.10435915 122.83853815 -0.10958135 130.68901594 -0.11483881 C157.5547783 -0.13272965 184.42054087 -0.14772642 211.28630829 -0.155159 C212.97329302 -0.15563376 214.66027776 -0.15610964 216.34726249 -0.15658666 C217.60216837 -0.15694122 217.60216837 -0.15694122 218.88242589 -0.15730295 C223.1211733 -0.15850417 227.3599207 -0.15971961 231.5986681 -0.16094494 C232.43986465 -0.16118509 233.28106119 -0.16142524 234.14774855 -0.16167267 C261.42682249 -0.16956716 288.70585299 -0.19300176 315.98490795 -0.22550088 C344.81651431 -0.25978703 373.64809524 -0.279509 402.47972232 -0.28280324 C405.64386548 -0.28322079 408.80800862 -0.28370035 411.97215176 -0.28422642 C412.75126974 -0.28434961 413.53038773 -0.2844728 414.33311535 -0.28459973 C426.87949142 -0.28693324 439.42581708 -0.30260159 451.97217518 -0.32306826 C464.57989819 -0.34330898 477.18756056 -0.34881188 489.79529681 -0.33929763 C496.62759028 -0.33453597 503.45973416 -0.33619833 510.29200459 -0.35605907 C516.54374288 -0.37359849 522.79519651 -0.37276809 529.04693744 -0.35716178 C531.31144693 -0.35477166 533.57597566 -0.35918137 535.84045561 -0.37099043 C538.91425406 -0.38603012 541.98703355 -0.37649113 545.06080627 -0.36076355 C545.94378345 -0.37098576 546.82676063 -0.38120796 547.73649469 -0.39173993 C554.98868119 -0.31053266 560.10891143 1.77123032 565.59500599 6.50922108 C571.55370631 13.46103812 572.99413779 18.29746486 572.97922707 27.28921509 C572.9815793 28.24252261 572.98393153 29.19583013 572.98635504 30.17802575 C572.99306253 33.40295265 572.99258629 36.62783941 572.99217701 39.85277271 C572.99547454 42.17604837 572.99919987 44.49932345 573.00331849 46.8225978 C573.01230443 52.55771963 573.01656813 58.29283166 573.01883745 64.02795977 C573.02179705 70.89501931 573.03049302 77.76206858 573.03925173 84.62912274 C573.06010681 101.22834359 573.07056749 117.82756623 573.07938134 134.42679713 C573.08358622 142.27727557 573.08880841 150.12775324 573.09406587 157.97823103 C573.11195672 184.84399338 573.12695349 211.70975595 573.13438606 238.57552338 C573.13486082 240.26250811 573.13533671 241.94949284 573.13581372 243.63647758 C573.13616829 244.89138346 573.13616829 244.89138346 573.13653002 246.17164098 C573.13773123 250.41038839 573.13894668 254.64913579 573.140172 258.88788319 C573.14041215 259.72907973 573.1406523 260.57027628 573.14089973 261.43696363 C573.14879423 288.71603758 573.17222882 315.99506807 573.20472795 343.27412304 C573.2390141 372.1057294 573.25873606 400.93731032 573.2620303 429.76893741 C573.26244785 432.93308056 573.26292742 436.0972237 573.26345348 439.26136684 C573.26357668 440.04048483 573.26369987 440.81960282 573.26382679 441.62233044 C573.2661603 454.16870651 573.28182865 466.71503217 573.30229533 479.26139027 C573.32253605 491.86911328 573.32803895 504.47677565 573.3185247 517.0845119 C573.31376304 523.91680537 573.3154254 530.74894925 573.33528614 537.58121967 C573.35282555 543.83295797 573.35199516 550.0844116 573.33638885 556.33615253 C573.33399873 558.60066202 573.33840844 560.86519074 573.3502175 563.1296707 C573.36525718 566.20346915 573.35571819 569.27624863 573.33999062 572.35002136 C573.35021282 573.23299854 573.36043503 574.11597572 573.370967 575.02570978 C573.28975973 582.27789628 571.20799675 587.39812652 566.47000599 592.88422108 C559.51818894 598.8429214 554.6817622 600.28335288 545.69001198 600.26844215 C544.2600507 600.2719705 544.2600507 600.2719705 542.80120131 600.27557012 C539.57627442 600.28227762 536.35138765 600.28180138 533.12645435 600.2813921 C530.8031787 600.28468963 528.47990361 600.28841496 526.15662926 600.29253358 C520.42150744 600.30151952 514.68639541 600.30578322 508.9512673 600.30805254 C502.08420775 600.31101214 495.21715848 600.3197081 488.35010432 600.32846682 C471.75088347 600.3493219 455.15166084 600.35978258 438.55242994 600.36859643 C430.7019515 600.37280131 422.85147383 600.3780235 415.00099604 600.38328096 C388.13523368 600.40117181 361.26947111 600.41616857 334.40370369 600.42360115 C332.71671896 600.42407591 331.02973422 600.4245518 329.34274949 600.42502881 C328.50614556 600.42526519 327.66954164 600.42550156 326.80758609 600.4257451 C322.56883868 600.42694632 318.33009128 600.42816176 314.09134388 600.42938709 C313.25014733 600.42962724 312.40895078 600.42986739 311.54226343 600.43011482 C284.26318948 600.43800932 256.98415899 600.46144391 229.70510402 600.49394304 C200.87349767 600.52822919 172.04191674 600.54795115 143.21028966 600.55124539 C140.0461465 600.55166294 136.88200336 600.55214251 133.71786022 600.55266857 C132.93874224 600.55279176 132.15962425 600.55291495 131.35689663 600.55304188 C118.81052055 600.55537539 106.2641949 600.57104374 93.7178368 600.59151042 C81.11011379 600.61175113 68.50245142 600.61725404 55.89471517 600.60773978 C49.0624217 600.60297813 42.23027782 600.60464049 35.39800739 600.62450123 C29.1462691 600.64204064 22.89481546 600.64121025 16.64307453 600.62560394 C14.37856505 600.62321382 12.11403632 600.62762353 9.84955636 600.63943259 C6.77575791 600.65447227 3.70297843 600.64493328 0.6292057 600.6292057 C-0.25377147 600.63942791 -1.13674865 600.64965012 -2.04648271 600.66018209 C-9.29866921 600.57897481 -14.41889945 598.49721183 -19.90499401 593.75922108 C-25.86369434 586.80740403 -27.30412581 581.97097729 -27.28921509 572.97922707 C-27.29156732 572.02591955 -27.29391955 571.07261203 -27.29634306 570.0904164 C-27.30305056 566.86548951 -27.30257431 563.64060274 -27.30216503 560.41566944 C-27.30546256 558.09239378 -27.30918789 555.7691187 -27.31330651 553.44584435 C-27.32229245 547.71072252 -27.32655615 541.9756105 -27.32882548 536.24048239 C-27.33178507 529.37342284 -27.34048104 522.50637357 -27.34923976 515.63931941 C-27.37009483 499.04009856 -27.38055551 482.44087592 -27.38936936 465.84164503 C-27.39357424 457.99116659 -27.39879643 450.14068892 -27.40405389 442.29021112 C-27.42194474 415.42444877 -27.43694151 388.5586862 -27.44437408 361.69291878 C-27.44484884 360.00593404 -27.44532473 358.31894931 -27.44580175 356.63196458 C-27.44603812 355.79536065 -27.4462745 354.95875673 -27.44651804 354.09680117 C-27.44771925 349.85805377 -27.4489347 345.61930637 -27.45016003 341.38055897 C-27.45040018 340.53936242 -27.45064033 339.69816587 -27.45088775 338.83147852 C-27.45878225 311.55240457 -27.48221684 284.27337408 -27.51471597 256.99431911 C-27.54900212 228.16271275 -27.56872408 199.33113183 -27.57201833 170.49950475 C-27.57243587 167.33536159 -27.57291544 164.17121845 -27.57344151 161.00707531 C-27.5735647 160.22795732 -27.57368789 159.44883934 -27.57381481 158.64611172 C-27.57614833 146.09973564 -27.59181668 133.55340998 -27.61228335 121.00705189 C-27.63252407 108.39932887 -27.63802697 95.79166651 -27.62851272 83.18393026 C-27.62375106 76.35163678 -27.62541342 69.5194929 -27.64527416 62.68722248 C-27.66281357 56.43548419 -27.66198318 50.18403055 -27.64637687 43.93228962 C-27.64398675 41.66778014 -27.64839646 39.40325141 -27.66020552 37.13877145 C-27.67524521 34.064973 -27.66570621 30.99219352 -27.64997864 27.91842079 C-27.66020084 27.03544361 -27.67042305 26.15246644 -27.68095502 25.24273238 C-27.59974775 17.99054588 -25.51798477 12.87031564 -20.77999401 7.38422108 C-13.82817697 1.42552075 -8.99175023 -0.01491073 0 0 Z " fill="#1E1E1E" transform="translate(27.154994010925293,-0.13422107696533203)"/>
<path d="M0 0 C1.3695282 0.01142029 1.3695282 0.01142029 2.76672363 0.02307129 C4.98921882 0.04271364 7.21129942 0.07029921 9.43359375 0.10546875 C9.43381112 0.71627956 9.43402849 1.32709036 9.43425244 1.95641059 C9.44777992 38.18988848 9.48731796 74.42325176 9.56044937 110.65666012 C9.56921571 115.01109662 9.57776559 119.36553352 9.58618164 123.7199707 C9.5878607 124.58682957 9.58953977 125.45368843 9.59126971 126.34681574 C9.61791073 140.36716859 9.62703271 154.38748056 9.62963518 168.40785613 C9.63269891 182.8032039 9.65469411 197.19843382 9.69411832 211.59372836 C9.71783625 220.47033099 9.72693774 229.34669806 9.71710686 238.22332797 C9.71177485 244.31742874 9.72489746 250.41131919 9.75225665 256.50536009 C9.76748535 260.01691019 9.7748415 263.52798936 9.76019096 267.03955269 C9.74852752 270.85839792 9.76775431 274.67593092 9.7943573 278.49467468 C9.78368404 279.5890737 9.77301078 280.68347271 9.76201409 281.81103534 C9.86548295 289.81491454 11.49924282 297.06444936 15.43359375 304.10546875 C21.62976206 309.67741791 25.92291833 310.52861041 34.16015625 310.4453125 C38.69281871 309.97473776 41.51440813 308.3553716 45.43359375 306.10546875 C46.42359375 306.43546875 47.41359375 306.76546875 48.43359375 307.10546875 C52.76994625 317.60400637 50.45148383 328.85866032 46.43359375 339.10546875 C40.37848864 350.61958055 30.67558685 357.23789391 18.43359375 361.10546875 C0.01010085 364.68592617 -21.54067566 363.39841766 -37.56640625 353.10546875 C-51.51461908 342.56106382 -59.08683117 328.18256139 -62.09262562 311.11800575 C-62.75963461 306.29765233 -62.70790061 301.49062867 -62.70011902 296.63241577 C-62.70238458 295.59021775 -62.70465013 294.54801973 -62.70698434 293.47423995 C-62.71330492 289.98851192 -62.71249621 286.50282296 -62.71166992 283.01708984 C-62.71466267 280.51501414 -62.71806547 278.01293889 -62.72184753 275.51086426 C-62.72976376 269.42274221 -62.73290175 263.33463548 -62.73345991 257.24650972 C-62.73393587 252.29398344 -62.73599461 247.34146035 -62.73916054 242.38893509 C-62.74796421 228.32973686 -62.75258051 214.27054625 -62.75183006 200.21134524 C-62.75179011 199.4540476 -62.75175015 198.69674996 -62.75170898 197.91650391 C-62.7516681 197.15827507 -62.75162722 196.40004624 -62.7515851 195.61884077 C-62.751179 183.34165467 -62.76074031 171.0644993 -62.77484735 158.78732209 C-62.78923732 146.163667 -62.79611605 133.54002686 -62.79525357 120.91636336 C-62.79492245 113.83628201 -62.79763229 106.75623284 -62.80843163 99.67615891 C-62.81853036 93.01294353 -62.81817454 86.34980715 -62.81091499 79.68658447 C-62.80987219 77.24740118 -62.81221386 74.80821361 -62.81827545 72.36903763 C-62.8664759 51.62152036 -62.85041472 33.58511928 -48.56640625 17.10546875 C-35.43325982 4.29901751 -17.91912201 -0.28858049 0 0 Z " fill="#FEFEFE" transform="translate(206.56640625,127.89453125)"/>
<path d="M0 0 C1.32272919 0.00473202 1.32272919 0.00473202 2.67218018 0.00955963 C4.83550432 0.01775404 6.99881126 0.03029333 9.16210938 0.04370117 C9.16270646 0.65738739 9.16330355 1.2710736 9.16391873 1.90335637 C9.19983194 38.29536078 9.25650048 74.68727809 9.34003033 111.07920547 C9.35004749 115.45124081 9.35989167 119.82327653 9.36962891 124.1953125 C9.37157028 125.0656866 9.37351165 125.9360607 9.37551185 126.83280977 C9.40651205 140.9159359 9.42350698 154.99904574 9.4353036 169.08219955 C9.44772542 183.5385477 9.4752501 197.99481054 9.51672244 212.45110482 C9.54182833 221.36760137 9.55522878 230.28395638 9.55353895 239.20048877 C9.55350914 245.3193142 9.56818209 251.43799573 9.59427366 257.55676506 C9.6088856 261.08420696 9.61715204 264.61135376 9.60791206 268.13882065 C9.59804365 271.97122073 9.61920708 275.80310666 9.64312744 279.63545227 C9.63148682 281.29162574 9.63148682 281.29162574 9.61961102 282.98125726 C9.70501817 290.73333075 10.62352558 299.05715303 15.97062898 305.08116895 C21.23683116 309.84762225 25.88814426 310.42790596 32.86523438 310.41088867 C38.1718062 309.81987238 42.5301063 307.59677374 47.16210938 305.04370117 C50.87136599 316.17147102 50.55705254 328.34325995 45.83789062 339.07104492 C39.92785693 349.55481099 30.76950123 356.99699811 19.30273438 360.50073242 C4.61386741 364.22655817 -13.82911409 364.07183505 -27.83789062 358.04370117 C-29.25134766 357.45975586 -29.25134766 357.45975586 -30.69335938 356.86401367 C-46.09007231 349.52397281 -53.97783605 336.46572879 -59.95507812 321.18823242 C-63.0576451 311.89530564 -62.98759225 301.94268491 -62.97160339 292.2414856 C-62.97386895 291.21220408 -62.97613451 290.18292257 -62.97846872 289.12245071 C-62.98475341 285.70442484 -62.98398294 282.28643918 -62.9831543 278.8684082 C-62.98614919 276.40515085 -62.98955249 273.94189397 -62.99333191 271.4786377 C-63.0012279 265.50068633 -63.00438502 259.52275054 -63.00494429 253.54479541 C-63.00542111 248.68199104 -63.00748409 243.81918991 -63.01064491 238.95638657 C-63.01944027 225.14217102 -63.02406589 211.32796321 -63.02331444 197.51374485 C-63.02327448 196.7706568 -63.02323453 196.02756876 -63.02319336 195.26196289 C-63.02315248 194.51795852 -63.0231116 193.77395415 -63.02306948 193.00740419 C-63.02266304 180.95033408 -63.03223506 168.89329519 -63.04633173 156.83623411 C-63.06072189 144.42941472 -63.0676005 132.02261055 -63.06673795 119.61578262 C-63.06640695 112.66095717 -63.0691113 105.70616448 -63.079916 98.75134659 C-63.09001475 92.20956041 -63.08965879 85.66783139 -63.08239937 79.1260376 C-63.08135676 76.7320025 -63.08369708 74.33796304 -63.08975983 71.94393539 C-63.13858636 51.32007446 -63.03208523 33.41973225 -48.83789062 17.04370117 C-40.31939319 8.73710666 -30.74029301 4.52210333 -19.33789062 1.73120117 C-18.68175781 1.55943359 -18.025625 1.38766602 -17.34960938 1.21069336 C-11.56917341 -0.07355007 -5.8889158 -0.0400753 0 0 Z " fill="#FEFEFE" transform="translate(327.837890625,127.956298828125)"/>
<path d="M0 0 C0.86983521 0.00563965 1.73967041 0.0112793 2.63586426 0.01708984 C4.75598833 0.03165614 6.87605612 0.05406859 8.99609375 0.078125 C9.06466877 30.87289925 9.11769338 61.66765588 9.14928974 92.46248835 C9.15304144 96.10577035 9.15692445 99.74905221 9.16088867 103.39233398 C9.1616756 104.11758471 9.16246253 104.84283544 9.16327331 105.59006346 C9.17629421 117.30241497 9.19992958 129.01472188 9.22755214 140.72704702 C9.25569898 152.7628884 9.27228953 164.79870658 9.27835923 176.83457953 C9.28209073 183.587398 9.29099513 190.34012386 9.31328392 197.09290886 C9.33377306 203.45975722 9.33990256 209.82646401 9.33541679 216.19334221 C9.33623646 218.51957979 9.34212748 220.84582252 9.35371017 223.1720314 C9.47145959 248.05850462 7.25420099 272.92375204 -10.72265625 291.859375 C-23.18929147 303.98445857 -40.04638583 309.1682626 -57.24609375 309.09765625 C-58.58583252 309.09342651 -58.58583252 309.09342651 -59.95263672 309.08911133 C-60.62955566 309.08548584 -61.30647461 309.08186035 -62.00390625 309.078125 C-62.07263519 275.77775313 -62.1254669 242.47739896 -62.15710224 209.17697187 C-62.16085417 205.24184181 -62.16473716 201.30671188 -62.16870117 197.37158203 C-62.1694881 196.58819807 -62.17027503 195.80481411 -62.17108581 194.99769124 C-62.18412494 182.32815114 -62.20777053 169.65865205 -62.23536464 156.98913625 C-62.26346044 143.98037811 -62.28009132 130.97164138 -62.28617173 117.96285415 C-62.29027953 109.9415261 -62.30323414 101.920314 -62.32765565 93.89902166 C-62.3454503 87.73899156 -62.34726136 81.57904909 -62.34322929 75.41899681 C-62.34405259 72.89876532 -62.34999285 70.37852931 -62.36152267 67.85832405 C-62.37653264 64.40728255 -62.3728286 60.95672999 -62.3646698 57.50567627 C-62.37340832 56.51731097 -62.38214685 55.52894566 -62.39115018 54.51062989 C-62.29723737 39.73107309 -57.63398248 27.13532046 -47.45703125 16.40234375 C-34.23852811 3.87844348 -17.84009009 -0.22279761 0 0 Z " fill="#FEFEFE" transform="translate(448.00390625,127.921875)"/>
</svg>
